<svg xmlns="http://www.w3.org/2000/svg" viewBox="0 0 444 249.75"><title>usign-logoAtivo 3</title><g id="Camada_2" data-name="Camada 2"><g id="Layer_1" data-name="Layer 1"><path d="M388.51,0h-333A55.5,55.5,0,0,0,0,55.49V249.75H388.51A55.49,55.49,0,0,0,444,194.26V55.49A55.5,55.5,0,0,0,388.51,0Zm7.2,217.27H364V201.91a82.46,82.46,0,0,1,.52-9.11H364c-5.73,11.19-20.3,27.59-47.11,27.59h-.13a45.94,45.94,0,0,1-45.94-45.94V84.53h32.8v77.18A29.53,29.53,0,0,0,361.46,170a65.43,65.43,0,0,0,1.2-13.45v-72h33Z" fill="#3e2367"/></g></g></svg>